<?xml version="1.0" encoding="iso-8859-1"?>
<!-- Generator: Adobe Illustrator 19.0.0, SVG Export Plug-In . SVG Version: 6.00 Build 0)  -->
<svg version="1.1" id="Layer_1" xmlns="http://www.w3.org/2000/svg" xmlns:xlink="http://www.w3.org/1999/xlink" x="0px" y="0px"
	 viewBox="0 0 512.14 512.14" style="enable-background:new 0 0 512.14 512.14;" xml:space="preserve">
<circle style="fill:#E16B5A;" cx="256.07" cy="256" r="256"/>
<path style="fill:#D16354;" d="M481.894,376.62c-0.292-0.82-0.652-1.624-0.984-2.428c-0.292-0.836-0.656-1.64-0.992-2.46
	c-0.292-0.836-0.656-1.632-0.992-2.452c-0.292-0.836-0.656-1.648-0.996-2.468c-0.288-0.828-0.652-1.62-0.988-2.432
	c-0.292-0.836-0.652-1.64-0.988-2.456c-0.296-0.84-0.656-1.632-0.992-2.452c-0.296-0.836-0.656-1.648-1-2.468
	c-0.288-0.828-0.648-1.624-0.984-2.436c-0.296-0.844-0.664-1.656-1-2.476c-0.296-0.828-0.656-1.624-0.992-2.436
	c-0.284-0.836-0.656-1.636-0.992-2.448c-0.288-0.844-0.656-1.648-0.992-2.468c-0.288-0.828-0.656-1.628-0.992-2.432
	c-0.284-0.836-0.656-1.64-0.992-2.46c-0.284-0.836-0.656-1.64-0.992-2.452c-0.288-0.844-0.648-1.648-0.988-2.468
	c-0.292-0.828-0.652-1.632-0.988-2.436c-0.292-0.836-0.656-1.636-0.992-2.456c-0.292-0.836-0.656-1.64-0.992-2.452
	c-0.296-0.844-0.656-1.644-0.996-2.464c-0.292-0.828-0.652-1.624-0.988-2.436c-0.288-0.836-0.656-1.64-0.992-2.46
	c-0.288-0.836-0.66-1.648-1-2.476c-0.288-0.828-0.652-1.624-0.988-2.436c-0.292-0.836-0.656-1.64-0.996-2.456
	c-0.288-0.828-0.652-1.632-0.988-2.444c-0.284-0.836-0.652-1.64-0.988-2.448c-0.288-0.836-0.656-1.64-0.992-2.46
	c-0.296-0.836-0.656-1.64-0.992-2.46c-0.296-0.828-0.656-1.632-0.992-2.444c-0.288-0.836-0.656-1.64-0.992-2.452
	c-0.288-0.836-0.656-1.64-0.992-2.448c-0.296-0.844-0.656-1.648-0.992-2.468c-0.292-0.828-0.656-1.632-0.992-2.44
	c-0.288-0.836-0.656-1.64-0.992-2.452c-0.292-0.844-0.656-1.656-1-2.476c-0.288-0.828-0.648-1.624-0.984-2.436
	c-0.296-0.836-0.656-1.648-1-2.468c-0.288-0.828-0.648-1.624-0.984-2.432c-0.292-0.84-0.656-1.64-0.992-2.452
	c-0.292-0.836-0.656-1.64-0.992-2.46c-0.296-0.836-0.656-1.644-0.996-2.464c-0.292-0.828-0.652-1.624-0.988-2.436
	c-0.288-0.836-0.656-1.64-0.992-2.452c-0.288-0.836-0.656-1.64-0.992-2.46c-0.296-0.836-0.656-1.648-0.996-2.468
	c-0.292-0.828-0.652-1.62-0.988-2.432c-0.288-0.832-0.656-1.64-0.992-2.456c-0.288-0.836-0.656-1.64-0.992-2.456
	c-0.296-0.84-0.656-1.652-1-2.476c-0.288-0.832-0.648-1.636-0.992-2.444c-0.288-0.828-0.648-1.628-0.984-2.44
	c-0.296-0.836-0.656-1.64-0.992-2.456c-0.296-0.836-0.656-1.64-0.992-2.456c-0.292-0.84-0.656-1.644-1-2.464
	c-0.284-0.828-0.648-1.628-0.984-2.44c-0.288-0.836-0.656-1.64-0.992-2.456c-0.288-0.836-0.652-1.64-0.992-2.456
	c-0.292-0.84-0.652-1.644-0.992-2.464c-0.292-0.828-0.652-1.628-0.988-2.44c-0.292-0.836-0.656-1.64-0.992-2.456
	c-0.292-0.836-0.656-1.64-0.992-2.452c-0.292-0.836-0.656-1.64-0.992-2.456c-0.296-0.844-0.664-1.66-1.004-2.488
	c-0.292-0.82-0.648-1.616-0.984-2.42c-0.288-0.836-0.656-1.64-0.992-2.452c-0.288-0.836-0.656-1.64-0.992-2.456
	c-0.288-0.84-0.656-1.648-0.996-2.468c-0.284-0.828-0.644-1.628-0.988-2.44c-0.288-0.836-0.648-1.636-0.984-2.452
	c-0.296-0.836-0.656-1.64-0.992-2.456c-0.296-0.84-0.656-1.648-1-2.468c-0.288-0.828-0.648-1.628-0.984-2.44
	c-0.296-0.836-0.656-1.636-0.992-2.452c-0.296-0.836-0.656-1.64-0.992-2.456c-0.292-0.836-0.656-1.64-0.992-2.456
	c-0.296-0.844-0.664-1.66-1.008-2.488c-0.288-0.82-0.648-1.612-0.984-2.416c-0.288-0.836-0.656-1.64-0.992-2.456
	c-0.288-0.836-0.652-1.64-0.992-2.456c-0.292-0.84-0.652-1.648-0.992-2.468c-0.292-0.828-0.652-1.624-0.988-2.436
	c-0.292-0.836-0.656-1.64-0.992-2.456c-0.292-0.836-0.656-1.64-0.992-2.456c-0.296-0.84-0.656-1.648-0.996-2.468
	c-0.292-0.824-0.652-1.624-0.988-2.436c-0.292-0.836-0.656-1.64-0.992-2.456c-0.292-0.836-0.656-1.64-0.992-2.456
	c-0.292-0.84-0.656-1.648-0.996-2.464c-0.288-0.828-0.648-1.628-0.984-2.44c-0.296-0.84-0.664-1.652-1-2.476
	c-0.296-0.828-0.656-1.628-0.992-2.436c-0.288-0.836-0.656-1.636-0.992-2.452c-0.296-0.84-0.656-1.648-0.992-2.468
	c-0.296-0.828-0.656-1.628-0.992-2.44c-0.288-0.836-0.656-1.64-0.992-2.456c-6.888-19.596-26.584-34.396-47.576-34.396h-12h-116h-36
	c-1.344,0-2.68,0.084-4.008,0.2c-0.468,0.048-0.932,0.104-1.4,0.16c-0.852,0.104-1.7,0.236-2.544,0.38
	c-0.548,0.096-1.092,0.2-1.64,0.312c-0.804,0.172-1.596,0.38-2.392,0.588c-0.5,0.132-1.008,0.252-1.504,0.4
	c-0.008,0.004-0.02,0.004-0.028,0.008c0,0,0,0,0,0.004c-18.324,5.556-33.408,21.808-36.188,40.96L96.138,331.056
	c-1.316,4.164-2.032,8.592-2.032,13.204v20c0,6.376,1.392,12.416,3.844,17.9c0.312,0.828,0.632,1.648,0.992,2.452
	c0.312,0.836,0.636,1.664,1,2.468c0.312,0.828,0.628,1.64,0.988,2.444c0.312,0.82,0.632,1.648,0.992,2.452
	c0.316,0.836,0.636,1.664,1,2.464c0.312,0.828,0.628,1.64,0.988,2.444c0.316,0.828,0.636,1.656,1,2.464
	c0.312,0.82,0.628,1.632,0.988,2.436c0.312,0.828,0.632,1.648,0.992,2.452c0.312,0.828,0.632,1.656,0.992,2.46
	c0.316,0.828,0.636,1.656,1,2.46c0.312,0.828,0.628,1.64,0.988,2.44c0.312,0.828,0.632,1.648,0.992,2.452
	c0.312,0.828,0.632,1.656,0.992,2.456c0.316,0.828,0.636,1.656,1,2.46c0.312,0.828,0.628,1.64,0.988,2.444
	c0.312,0.828,0.632,1.648,0.992,2.452c0.312,0.828,0.632,1.656,0.992,2.46c0.316,0.836,0.64,1.672,1.004,2.476
	c0.308,0.82,0.624,1.628,0.98,2.424c0.312,0.828,0.632,1.648,0.992,2.448c0.312,0.828,0.632,1.656,0.992,2.452
	c0.312,0.828,0.632,1.656,0.992,2.46c0.312,0.828,0.636,1.656,1,2.468c0.312,0.82,0.628,1.64,0.988,2.436
	c0.312,0.828,0.632,1.656,0.992,2.448c0.312,0.828,0.632,1.656,0.992,2.46c0.312,0.828,0.636,1.656,1,2.468
	c0.312,0.82,0.628,1.636,0.988,2.432c0.312,0.828,0.632,1.656,0.992,2.452c0.312,0.828,0.632,1.656,0.992,2.46
	c0.316,0.836,0.64,1.672,1.004,2.484c0.308,0.82,0.624,1.632,0.98,2.42c0.312,0.828,0.632,1.644,0.992,2.448
	c0.312,0.828,0.632,1.656,0.992,2.46c0.312,0.828,0.632,1.644,0.992,2.448c0.316,0.836,0.636,1.664,1,2.468
	c0.312,0.828,0.628,1.64,0.988,2.436c0.312,0.828,0.632,1.656,0.992,2.46c0.312,0.828,0.632,1.648,0.992,2.452
	c0.316,0.836,0.636,1.664,1,2.464c0.132,0.356,0.28,0.7,0.42,1.044c35.088,18.08,74.856,28.352,117.044,28.352
	C353.834,512,438.77,457.18,481.894,376.62z"/>
<path style="fill:#406A80;" d="M414.07,360h-316c-1.16,0-2.264-0.5-3.024-1.384C94.286,357.736,94.07,352,94.07,344l30.296-196.988
	c3.44-23.716,25.74-43.012,49.704-43.012h164c23.964,0,46.256,19.296,49.704,43.012L418.07,344c0,4-0.22,13.744-0.976,14.616
	C416.334,359.5,415.23,360,414.07,360z"/>
<g>
	<path style="fill:#325366;" d="M387.774,147.016c-3.436-23.716-25.74-43.012-49.704-43.012h-12
		c23.964,0,46.256,19.296,49.704,43.012l30.296,196.988c0,4-0.22,13.748-0.976,14.612c-0.756,0.888-1.864,1.388-3.024,1.388h12
		c1.16,0,2.264-0.5,3.024-1.388c0.756-0.876,0.976-10.612,0.976-14.612L387.774,147.016z"/>
	<path style="fill:#325366;" d="M374.07,408h-236c-24.26,0-44-19.736-44-44v-20c0-24.256,19.74-44,44-44h236
		c24.256,0,44,19.744,44,44v20C418.07,388.268,398.326,408,374.07,408z"/>
</g>
<path style="fill:#406A80;" d="M138.07,400c-19.852,0-36-16.148-36-36v-20c0-19.852,16.148-36,36-36h236c19.852,0,36,16.148,36,36
	v20c0,19.852-16.148,36-36,36H138.07z"/>
<circle style="fill:#F5F5F5;" cx="347.39" cy="353.984" r="20"/>
<circle style="fill:#406A80;" cx="347.39" cy="353.984" r="12"/>
<g>
	<circle style="fill:#F5F5F5;" cx="256.07" cy="236.004" r="12"/>
	<path style="fill:#F5F5F5;" d="M273.042,223.032c-1.028,0-2.052-0.392-2.828-1.172c-3.78-3.78-8.804-5.86-14.144-5.86
		c-5.34,0-10.36,2.084-14.14,5.86c-1.564,1.568-4.092,1.568-5.656,0c-1.564-1.564-1.564-4.088,0-5.656
		c5.288-5.288,12.32-8.204,19.796-8.204c7.48-0.004,14.512,2.916,19.8,8.204c1.564,1.568,1.564,4.092,0,5.656
		C275.086,222.644,274.066,223.032,273.042,223.032z"/>
	<path style="fill:#F5F5F5;" d="M284.35,211.716c-1.024,0-2.048-0.392-2.828-1.172c-14.032-14.032-36.876-14.032-50.916,0
		c-1.564,1.568-4.092,1.568-5.656,0c-1.564-1.564-1.564-4.088,0-5.656c17.156-17.156,45.064-17.156,62.22,0
		c1.572,1.568,1.572,4.092,0,5.656C286.402,211.328,285.378,211.716,284.35,211.716z"/>
	<path style="fill:#F5F5F5;" d="M295.662,200.404c-1.024,0-2.048-0.392-2.828-1.172c-20.268-20.268-53.26-20.268-73.536,0
		c-1.564,1.568-4.092,1.568-5.656,0c-1.564-1.564-1.564-4.088,0-5.656c11.332-11.332,26.4-17.576,42.42-17.58h0.004
		c16.024,0,31.088,6.244,42.424,17.58c1.564,1.568,1.564,4.092,0,5.656C297.714,200.016,296.686,200.404,295.662,200.404z"/>
</g>
<g>
</g>
<g>
</g>
<g>
</g>
<g>
</g>
<g>
</g>
<g>
</g>
<g>
</g>
<g>
</g>
<g>
</g>
<g>
</g>
<g>
</g>
<g>
</g>
<g>
</g>
<g>
</g>
<g>
</g>
</svg>
