<?xml version="1.0" encoding="iso-8859-1"?>
<!-- Generator: Adobe Illustrator 19.0.0, SVG Export Plug-In . SVG Version: 6.00 Build 0)  -->
<svg version="1.1" id="Layer_1" xmlns="http://www.w3.org/2000/svg" xmlns:xlink="http://www.w3.org/1999/xlink" x="0px" y="0px"
	 viewBox="0 0 511.984 511.984" style="enable-background:new 0 0 511.984 511.984;" xml:space="preserve">
<g>
	<path style="fill:#434A54;" d="M410.638,117.325c-5.875,0-10.654,4.781-10.654,10.656v42.686c0,5.875,4.779,10.656,10.654,10.656
		c5.906,0,10.688-4.781,10.688-10.656v-42.686C421.326,122.106,416.545,117.325,410.638,117.325z"/>
	<path style="fill:#434A54;" d="M410.638,191.979c-5.875,0-10.654,4.781-10.654,10.687v42.655c0,5.891,4.779,10.656,10.654,10.656
		c5.906,0,10.688-4.766,10.688-10.656v-42.655C421.326,196.76,416.545,191.979,410.638,191.979z"/>
	<path style="fill:#434A54;" d="M133.328,506.656c-20.593,0-37.327-16.75-37.327-37.344V42.671
		c0-20.594,16.734-37.343,37.327-37.343h234.656c20.594,0,37.342,16.749,37.342,37.343v426.641
		c0,20.594-16.748,37.344-37.342,37.344H133.328z"/>
</g>
<path style="fill:#656D78;" d="M367.984,0H133.328c-23.562,0-42.67,19.109-42.67,42.671v426.641
	c0,23.562,19.109,42.672,42.67,42.672h234.656c23.562,0,42.654-19.109,42.654-42.672V42.671C410.638,19.109,391.547,0,367.984,0z
	 M399.984,469.312c0,17.656-14.344,32-32,32H133.328c-17.64,0-31.999-14.344-31.999-32V42.671c0-17.656,14.359-31.999,31.999-31.999
	h234.656c17.656,0,32,14.343,32,31.999V469.312z"/>
<rect x="101.332" y="74.672" style="fill:#FFCE54;" width="298.65" height="362.64"/>
<path style="fill:#5D9CEC;" d="M335.986,42.671c0,5.875-4.781,10.655-10.656,10.655c-5.906,0-10.688-4.781-10.688-10.655
	c0-5.906,4.781-10.688,10.688-10.688C331.205,31.984,335.986,36.765,335.986,42.671z"/>
<g>
	<path style="fill:#656D78;" d="M293.33,31.984H175.998c-5.906,0-10.671,4.781-10.671,10.688c0,5.875,4.766,10.655,10.671,10.655
		H293.33c5.875,0,10.656-4.781,10.656-10.655C303.986,36.765,299.205,31.984,293.33,31.984z"/>
	<path style="fill:#656D78;" d="M325.33,480.265H175.998c-5.89,0-10.671-4.781-10.671-10.672c0-5.889,4.781-10.67,10.671-10.67
		H325.33c5.875,0,10.656,4.781,10.656,10.67C335.986,475.484,331.205,480.265,325.33,480.265z"/>
</g>
<path style="fill:#ED5564;" d="M357.328,319.99c0,23.562-19.123,42.67-42.686,42.67H186.655c-23.562,0-42.655-19.107-42.655-42.67
	V191.994c0-23.562,19.093-42.671,42.655-42.671h127.987c23.562,0,42.686,19.109,42.686,42.671V319.99z"/>
<path style="fill:#FFCE54;" d="M254.715,255.992l55.865-31.233c-2.781-5.016-6.344-9.75-10.625-14.016
	c-24.967-24.999-65.505-24.999-90.489,0c-24.999,24.983-24.999,65.514,0,90.497c24.984,25,65.522,25,90.489,0
	c4.281-4.266,7.844-9,10.625-14.014L254.715,255.992z"/>
<g>
</g>
<g>
</g>
<g>
</g>
<g>
</g>
<g>
</g>
<g>
</g>
<g>
</g>
<g>
</g>
<g>
</g>
<g>
</g>
<g>
</g>
<g>
</g>
<g>
</g>
<g>
</g>
<g>
</g>
</svg>
